<?xml version="1.0" standalone="no"?><!DOCTYPE svg PUBLIC "-//W3C//DTD SVG 1.1//EN" "http://www.w3.org/Graphics/SVG/1.1/DTD/svg11.dtd"><svg t="1526560035140" class="icon" style="" viewBox="0 0 1026 1024" version="1.1" xmlns="http://www.w3.org/2000/svg" p-id="4560" xmlns:xlink="http://www.w3.org/1999/xlink" width="200.390625" height="200"><defs><style type="text/css"></style></defs><path d="M572.8 512l435.2-438.4c16-16 16-44.8 0-60.8s-44.8-16-60.8 0l-435.2 438.4-435.2-438.4c-16-16-44.8-16-60.8 0s-16 44.8 0 60.8l435.2 438.4-435.2 438.4c-16 16-16 44.8 0 60.8 9.6 9.6 19.2 12.8 32 12.8 9.6 0 22.4-3.2 32-12.8l435.2-438.4 435.2 438.4c9.6 9.6 19.2 12.8 32 12.8 9.6 0 22.4-3.2 32-12.8 16-16 16-44.8 0-60.8l-441.6-438.4z" fill="#707070" p-id="4561"></path></svg>